<svg version="1.0" xmlns="http://www.w3.org/2000/svg" width="422.667" height="286.667" viewBox="0 0 317 215">
    <defs>
        <linearGradient id="a" x1="0%" y1="0%" x2="100%" y2="0%" gradientTransform="rotate(65)">
            <stop offset="0%" stop-color="#F1B834"/>
            <stop offset="20%" stop-color="#F1B834"/>
            <stop offset="30%" stop-color="#F1B834"/>
            <stop offset="55%" stop-color="#EB4D1D"/>
            <stop offset="100%" stop-color="#EB4D1D"/>
        </linearGradient>
        <linearGradient id="b" x1="0%" y1="0%" x2="100%" y2="0%" gradientTransform="rotate(10)">
            <stop offset="0%" stop-color="#EB4D1D"/>
            <stop offset="5%" stop-color="#A23B21"/>
            <stop offset="10%" stop-color="#582926"/>
            <stop offset="25%" stop-color="#0F172A"/>
            <stop offset="75%" stop-color="#0F172A"/>
            <stop offset="90%" stop-color="#5A4D2D"/>
            <stop offset="95%" stop-color="#A68231"/>
            <stop offset="100%" stop-color="#F1B834"/>
        </linearGradient>
    </defs>
    <path fill="url(#a)" d="M417 1843c4-21 7-92 7-158-2-194-41-319-177-570-68-124-82-157-81-192 0-23 6-49 13-57s9-21 5-28-4-10 0-7c8 8 71-47 71-62 0-5 6-14 14-18 7-5 10-14 6-20-4-7-2-17 3-24s12-30 16-52c11-60 16-76 27-70 5 4 9-2 9-12 1-10 29 38 64 107 34 69 93 183 129 253 89 172 117 262 117 380l1 92 19-37c33-61 50-147 50-243 0-163-34-274-156-520-78-157-89-189-85-237 5-68 220 98 335 259 45 63 107 196 132 283 26 92 26 319 0 405-64 206-212 396-401 516-38 24-97 49-117 49-5 0-6-16-1-37z" transform="matrix(.1 0 0 -.1 0 215)"/>
    <path fill="#F1B834" d="M176.6 111c-.4 13.2-.5 24.4-.1 25 .3.5 2.7 1 5.2 1 3.7 0 4.6-.4 5-2.1.6-2 .6-2 3 .3 1.9 1.8 3.5 2.3 6.9 2.1 5.3-.2 8.7-2.2 11.3-6.5l1.9-3 1.3 2.8c2.3 4.5 6.3 6.8 11.7 6.7 2.7 0 5.8-.6 7-1.2 1.4-.7 2.3-.8 2.7-.1.3.5 2.4 1 4.6 1h3.9v-14.3c0-13.6-.1-14.5-2.2-16.4-3.9-3.5-6.4-4.3-13.7-4.3-6 0-7.4.3-10 2.6-1.7 1.4-3.1 3.5-3.1 4.6 0 1.9.4 2 7.4 1.3 7-.6 11.6.3 11.6 2.3 0 .4-3.5 1.3-7.7 2-6.8 1-8.1 1.6-10.5 4.4l-2.8 3.2v-6c0-12.3-7.9-17.6-20.7-13.8-2.3.6-2.3.5-2.3-7.5V87h-9.7l-.7 24zm21.2.2c1.5 1.5 1.6 12.2.2 14.9-1.2 2.1-5.9 2.6-9.1.9-2.7-1.5-2.8-14.4-.1-15.9 2.4-1.4 7.5-1.4 9 .1zm33 13.4c.5 3.9-8.9 6.1-9.6 2.3-.5-2.6 2.7-5 6.2-4.7 2.3.2 3.2.9 3.4 2.4z"/>
    <path fill="url(#b)" d="M1020 1021V790h109l3 138 3 137 25-40c13-22 59-84 102-137l78-98h187l27 40c14 22 30 40 34 40s18-18 32-40c24-38 27-40 77-40 29 0 53 4 53 9s-22 43-50 85c-27 42-50 79-50 81 0 3 20 37 45 77s45 76 45 80c0 5-22 8-49 8-45 0-50-2-75-40-14-22-28-40-30-40s-15 18-30 40c-25 38-29 40-76 40-28 0-50-4-50-8 0-5 20-40 45-78 24-38 45-74 45-81s-22-47-50-89l-50-77v443h-110v-111c0-67-4-109-10-107-5 2-47 53-93 113l-83 110-52 3-52 3v-230z" transform="matrix(.1 0 0 -.1 0 215)"/>
    <path fill="#F1B834" d="M248.3 104.1c-3.8 2.4-5.4 6.9-4.1 11.4 1 3.8 2.2 4.9 8.8 8.2 3.2 1.7 5.6 3.6 5.8 4.7.4 1.7 0 1.8-3.4 1.3-2.2-.3-4.8-.9-6-1.2-2.5-.8-5.4 1.7-5.4 4.6 0 2.3 3.1 3.7 10.3 4.5 10.5 1.2 18.6-4.8 17.2-12.6-.9-4.8-2.9-6.7-9.7-9.1-9.5-3.5-9.2-5.4 1-5.4h6.7v-3c0-3.9-3.2-5.5-11.5-5.5-4.9 0-7.3.6-9.7 2.1z"/>
    <path fill="#F1B834" d="M279.9 104.3c-2.4 1.3-5.2 3.8-6.3 5.6-4.2 7.3-1.1 20.8 5.8 25.1 6.1 3.7 19.1 3.9 23.6.2 1.8-1.5 1.9-2 .8-3.5-1-1.3-3.3-1.9-8.6-2.4-7.9-.6-12.7-3.1-10.6-5.3.8-.8 2.7-.9 6.5-.2 5 .9 8.9.8 14.7-.4 1.9-.4 2.2-1 2.2-5.7 0-6.5-2.5-10.9-7.9-13.7-5.7-2.8-14.4-2.7-20.2.3zm14.9 6.9c.7.7 1.2 2.1 1.2 3.1 0 1.7-.6 1.9-6 1.5-7.2-.5-8.3-1.3-5.1-3.9 2.6-2.1 8.1-2.5 9.9-.7z"/>
</svg>
